# xmcd
#
# Track frame offsets:
#	150
#	13687
#	30737
#	48045
#	61365
#	75417
#	89702
#	108212
#	121577
#	135225
#	154357
#	167522
#	184187
#
# Disc length: 2750 seconds
#
# Revision: 4
# Processed by: cddbd v1.5PL3 Copyright (c) Steve Scherf et al.
# Submitted via: CDex 1.50Beta5
#
DISCID=960abc0d
DTITLE=吉田拓郎 - よしだたくろうLIVE′73
DYEAR=1900
DGENRE=New Age
TTITLE0=春だったね’73
TTITLE1=マーク。イ’73
TTITLE2=君去りし後
TTITLE3=君が好き
TTITLE4=都万の秋
TTITLE5=むなしさだけがあった
TTITLE6=落陽
TTITLE7=雨が空から降れば
TTITLE8=こうき心’73
TTITLE9=野の仏
TTITLE10=晩餐
TTITLE11=ひらひら
TTITLE12=望みを捨てろ
EXTD=
EXTT0=
EXTT1=
EXTT2=
EXTT3=
EXTT4=
EXTT5=
EXTT6=
EXTT7=
EXTT8=
EXTT9=
EXTT10=
EXTT11=
EXTT12=
PLAYORDER=
